<svg xmlns="http://www.w3.org/2000/svg" x="0px" y="0px" width="100%" viewBox="0 0 114 200" style="vertical-align: middle; max-width: 100%; width: 100%;"><path d="M64.8,62.6C84.7,31,50.4,35.3,60.6,2.7C35.8,31,69.3,42.2,64.8,62.6z M110.9,134.7   c-1.4,11.2-14.9,16.6-14.9,16.6c23.9-34.9-6.8-56.4-14-65.8c-7.2-9.4,0-21,0-21s-11.2,7.7-14.3,28.2c-1.4,12.6,9.9,20.6,5,29.5   c-2.4,4.3-7.4,6.4-12.3,5.8c-20.2-2.6-12.7-28.6-12.7-28.6c14.4-53.7-12.6-66.7-12.6-66.7s5.9,19.9-10.4,46.5   c-35.1,47-1.4,71.2-1.4,71.2c-16.2,0.4-20.3-19.5-20.3-19.5s-9.5,66.5,53.2,66.5S110.9,134.7,110.9,134.7z" fill="#ffffff"></path><path d="M62.2,62c-0.3,1.3,0.4,2.6,1.6,3.1c0.3,0.1,0.7,0.2,1,0.2c0.9,0,1.8-0.5,2.3-1.3   c11.4-18.2,5.9-26.1,0.6-33.8c-4.6-6.5-8.9-12.7-4.5-26.8c0.4-1.2-0.1-2.5-1.3-3.1c-1.1-0.6-2.5-0.4-3.4,0.6   c-16.5,18.8-9,31.1-2.4,41.9C60.1,49.2,63.7,55.1,62.2,62z M56,14.3c0.1,8.8,4,14.3,7.3,19c3.9,5.5,7.1,10.1,3.8,19.1   c-1.3-4.4-3.8-8.4-6.2-12.4C55.8,31.9,51.3,24.5,56,14.3z M113.6,134.3c-0.2-1.3-1.3-2.3-2.7-2.3h0c-1.4,0-2.5,1-2.7,2.4   c-0.4,3.3-2.2,6.1-4.3,8.3c11.5-26-5.7-43.9-15.4-54c-1.8-1.9-3.4-3.5-4.4-4.8c-6-7.8-0.1-17.6,0.2-18c0.7-1.1,0.5-2.5-0.4-3.3   c-0.9-0.9-2.3-1-3.4-0.3c-0.5,0.3-12.2,8.6-15.5,30.2c-0.7,6.6,1.6,12,3.7,16.7c2.3,5.3,3.5,8.4,1.7,11.8c-1.7,3.2-5.6,4.9-9.6,4.4   c-4.2-0.5-7.2-2.2-9.1-5.1c-4.9-7.3-1.4-20-1.3-20.1c14.8-55.2-12.9-69.2-14.1-69.8c-1-0.5-2.1-0.3-2.9,0.4   c-0.8,0.7-1.1,1.8-0.9,2.8c0.1,0.2,5.3,19.1-10,44.3C9.7,94.9,4.4,111.2,6.7,126.1c1.3,8.2,4.7,14.5,7.9,18.9   C8,140.3,6,130.9,5.9,130.3c-0.3-1.3-1.4-2.2-2.6-2.2c0,0-0.1,0-0.1,0c-1.3,0-2.4,1-2.6,2.3C0.4,131.8-3.8,163,14,183.3   c9.7,11.1,24,16.7,42.4,16.7c19.1,0,33.8-5.7,43.8-16.9C117.2,163.9,113.8,135.5,113.6,134.3z M96.1,179.6c-8.8,10-22.2,15-39.7,15   c-16.8,0-29.7-5-38.3-14.8C8.3,168.7,5.9,153.4,5.5,143c3.6,5.4,9.3,10,17.5,10c0.2,0,0.4,0,0.6,0c1.2,0,2.2-0.8,2.5-1.9   c0.3-1.1-0.1-2.3-1-3c-0.1-0.1-10.7-7.8-13-22.8C9.9,111.9,15,96.9,27,80.8c0.1-0.1,0.1-0.1,0.1-0.2c11.1-18.2,12.3-33.4,11.7-41.8   c6.5,6.6,16.2,23.3,6.4,59.8c-0.2,0.6-4.2,15.1,2,24.5c2.8,4.2,7.2,6.7,12.9,7.5c6.2,0.8,12.2-2.1,15-7.2c3.2-5.9,0.8-11.3-1.5-16.5   c-1.9-4.3-3.8-8.7-3.3-13.8c1.1-7.4,3.4-13.1,5.7-17.2c0,3.6,0.9,7.5,3.8,11.2c1.2,1.5,2.8,3.3,4.7,5.3c10.6,11,28.2,29.5,9.1,57.4   c-0.7,1-0.6,2.3,0.1,3.2c0.7,0.9,2,1.2,3.1,0.8c0.4-0.2,6.6-2.7,11.4-7.9C107.9,155.3,105.4,169.1,96.1,179.6z" fill="transparent"></path></svg>